# xmcd
#
# Track frame offsets: 
#        150
#        12550
#        32695
#        44115
#        71475
#        93895
#        105345
#        123960
#        135107
#        146690
#        198520
#        214632
#        227897
#        241357
#        252302
#        271362
#
# Disc length: 4272 seconds
#
# Revision: 4
# Processed by: cddbd v1.5.2PL0 Copyright (c) Steve Scherf et al.
# Submitted via: ExactAudioCopy v0.99pb5
#
DISCID=e110ae10
DTITLE=The Blues Project - The Best Of The Blues Project
DYEAR=1989
DGENRE=Blues
TTITLE0=No Time Like The Right Time 
TTITLE1=I Can't Keep From Crying 
TTITLE2=Wake Me, Shake Me 
TTITLE3=Flute Thing
TTITLE4=Steve's Song
TTITLE5=Where There's Smoke, There's Fire
TTITLE6=Goin' Down Louisiana
TTITLE7=I Want To Be Your Driver
TTITLE8=Mean Old Southern 
TTITLE9=Two Trains Running
TTITLE10=Fly Away
TTITLE11=Lost In The Shuffle
TTITLE12=Violets Of Dawn
TTITLE13=Love Will Endure
TTITLE14=Alberta
TTITLE15=Flute Thing  (Live, 1973)
EXTD=
EXTT0=
EXTT1=
EXTT2=
EXTT3=
EXTT4=
EXTT5=
EXTT6=
EXTT7=
EXTT8=
EXTT9=
EXTT10=
EXTT11=
EXTT12=
EXTT13=
EXTT14=
EXTT15=
PLAYORDER=
